<svg xmlns="http://www.w3.org/2000/svg" width="40" height="40" viewBox="0 0 40 40" fill="none">
  <path fill="#a3be8c" d="M20 40C31.0457 40 40 31.0457 40 20C40 8.9543 31.0457 0 20 0C8.95431 0 0 8.9543 0 20C0 31.0457 8.95431 40 20 40Z" />
  <path fill="#2b303b" d="M20 18.9C19.39 18.9 18.9 19.39 18.9 20C18.9 20.61 19.39 21.1 20 21.1C20.61 21.1 21.1 20.61 21.1 20C21.1 19.39 20.61 18.9 20 18.9ZM20 10C14.48 10 10 14.48 10 20C10 25.52 14.48 30 20 30C25.52 30 30 25.52 30 20C30 14.48 25.52 10 20 10ZM22.19 22.19L14 26L17.81 17.81L26 14L22.19 22.19Z" />
</svg>
