<svg xmlns="http://www.w3.org/2000/svg" viewBox="0 0 48 48">
  <circle fill="#ebcb8b" cx="24" cy="24" r="20" />
  <rect fill="#81a1c1" height="12.2" rx="6.1" width="31.77" x=".23" y="25.31" />
  <circle fill="#e5e9f0" cx="16.11" cy="31.41" r="3.2" />
  <circle fill="#e5e9f0" opacity=".6" cx="6.8" cy="31.41" r="3.2" />
  <circle fill="#e5e9f0" opacity=".6" cx="25.43" cy="31.41" r="3.2" />
  <rect fill="#b48ead" height="10" rx="5" width="26.05" x="21.95" y="11" />
  <path fill="#2b303b" d="m35.05 19.38v-6.5h-1.62v2.46h-2.25v-2.46h-1.61v6.5h1.61v-2.64h2.25v2.64zm2.63-6a.81.81 0 0 0 -1.62 0 .81.81 0 0 0 1.62 0zm-.1 6v-4.61h-1.43v4.61zm2.79-6.5h-1.76l.46 4.26.86-.19zm-.12 6.5v-1.62h-1.53v1.62z" />
</svg>
