<svg xmlns="http://www.w3.org/2000/svg" viewBox="0 0 48 48">
  <circle fill="#b48ead" cx="24" cy="24" r="20" />
  <circle fill="#88c0d0" cx="39.48" cy="8.52" r="8.52" />
  <path stroke="#eceff4" d="m39.48 4.48v7.76" fill="none" stroke-linecap="round" stroke-miterlimit="10" stroke-width="2.66" />
  <path stroke="#eceff4" d="m43.36 8.36h-7.76" fill="none" stroke-linecap="round" stroke-miterlimit="10" stroke-width="2.66" />
  <path fill="#eceff4" d="m33 32.89c0-3.81-1.94-7.06-4.67-8.35a4.48 4.48 0 1 0 -4.88-.54 8.44 8.44 0 0 1 -5.37-1.83 5.74 5.74 0 0 1 -1.87-3.87 2.24 2.24 0 0 0 -4.48 0 10.38 10.38 0 0 0 3.27 7.16 11.13 11.13 0 0 0 4.66 2.48 10.39 10.39 0 0 0 -1.22 4.95z" />
</svg>
